<svg width="123" height="98" viewBox="0 0 123 98" fill="none" xmlns="http://www.w3.org/2000/svg">
<path d="M114.214 0C109.37 0 105.429 4.12212 105.429 9.1875C105.429 11.907 106.588 14.3294 108.392 16.0138L82.6179 58.9838C81.5314 58.4784 80.3366 58.1875 79.0714 58.1875C76.5294 58.1875 74.2539 59.339 72.6491 61.1489L46.0781 43.5549C46.5701 42.4095 46.8571 41.1477 46.8571 39.8125C46.8571 34.7471 42.9153 30.625 38.0714 30.625C33.2276 30.625 29.2857 34.7471 29.2857 39.8125C29.2857 42.581 30.4864 45.0371 32.3431 46.7215L12.1506 80.3294C11.1139 79.8792 9.97764 79.625 8.78571 79.625C3.94186 79.625 0 83.7471 0 88.8125C0 93.8779 3.94186 98 8.78571 98C13.6296 98 17.5714 93.8779 17.5714 88.8125C17.5714 86.093 16.4146 83.6736 14.6136 81.9862L34.8324 48.3324C35.8369 48.755 36.9264 49 38.0714 49C40.5871 49 42.8421 47.8761 44.444 46.0998L71.0296 63.7031C70.5581 64.8301 70.2857 66.0673 70.2857 67.375C70.2857 72.4404 74.2276 76.5625 79.0714 76.5625C83.9153 76.5625 87.8571 72.4404 87.8571 67.375C87.8571 64.7321 86.7706 62.3647 85.0545 60.6865L110.858 17.6706C111.892 18.1208 113.025 18.375 114.214 18.375C119.058 18.375 123 14.2529 123 9.1875C123 4.12212 119.058 0 114.214 0ZM14.6429 88.8125C14.6429 92.1935 12.0159 94.9375 8.78571 94.9375C5.5555 94.9375 2.92857 92.1935 2.92857 88.8125C2.92857 85.4315 5.5555 82.6875 8.78571 82.6875C12.0159 82.6875 14.6429 85.4315 14.6429 88.8125ZM38.0714 45.9375C34.8412 45.9375 32.2143 43.1904 32.2143 39.8125C32.2143 36.4346 34.8412 33.6875 38.0714 33.6875C41.3016 33.6875 43.9286 36.4346 43.9286 39.8125C43.9286 43.1904 41.3016 45.9375 38.0714 45.9375ZM79.0714 73.5C75.8383 73.5 73.2143 70.756 73.2143 67.375C73.2143 63.994 75.8383 61.25 79.0714 61.25C82.3046 61.25 84.9286 63.994 84.9286 67.375C84.9286 70.756 82.3046 73.5 79.0714 73.5ZM114.214 15.3125C110.981 15.3125 108.357 12.5654 108.357 9.1875C108.357 5.80956 110.981 3.0625 114.214 3.0625C117.447 3.0625 120.071 5.80956 120.071 9.1875C120.071 12.5654 117.447 15.3125 114.214 15.3125Z" fill="white"/>
</svg>
